<svg width="24" height="24" viewBox="0 0 24 24" fill="none" xmlns="http://www.w3.org/2000/svg">
<g clip-path="url(#clip0_219_495)">
<path fill-rule="evenodd" clip-rule="evenodd" d="M14.9711 17.5003C14.4553 18.4743 14.0649 19.4402 13.8154 20.3071H10.1846C9.93507 19.4402 9.54468 18.4743 9.02888 17.5003C8.1375 15.817 7.07784 14.4994 6.18375 13.8577L12 1L17.8163 13.8577C16.9222 14.4994 15.8625 15.817 14.9711 17.5003ZM12 13.5276C12.7937 13.5276 13.437 12.8842 13.437 12.0905C13.437 11.2969 12.7937 10.6535 12 10.6535C11.2064 10.6535 10.563 11.2969 10.563 12.0905C10.563 12.8842 11.2064 13.5276 12 13.5276Z" fill="#ECE6DB"/>
<path d="M13.8154 20.3071V21.0571H14.3799L14.5361 20.5146L13.8154 20.3071ZM14.9711 17.5003L15.6339 17.8513L15.6339 17.8513L14.9711 17.5003ZM10.1846 20.3071L9.4639 20.5146L9.62008 21.0571H10.1846V20.3071ZM9.02888 17.5003L8.36608 17.8513L8.36608 17.8513L9.02888 17.5003ZM6.18375 13.8577L5.50041 13.5486L5.24708 14.1086L5.74644 14.467L6.18375 13.8577ZM12 1L12.6833 0.690888L12 -0.819729L11.3167 0.690888L12 1ZM17.8163 13.8577L18.2536 14.467L18.7529 14.1086L18.4996 13.5486L17.8163 13.8577ZM14.5361 20.5146C14.7699 19.7024 15.1398 18.7843 15.6339 17.8513L14.3083 17.1493C13.7708 18.1642 13.3599 19.1781 13.0946 20.0996L14.5361 20.5146ZM10.1846 21.0571H13.8154V19.5571H10.1846V21.0571ZM8.36608 17.8513C8.86021 18.7843 9.23008 19.7024 9.4639 20.5146L10.9054 20.0996C10.6401 19.1781 10.2291 18.1642 9.69168 17.1493L8.36608 17.8513ZM5.74644 14.467C6.50867 15.014 7.50189 16.2194 8.36608 17.8513L9.69168 17.1493C8.77312 15.4147 7.64701 13.9847 6.62105 13.2484L5.74644 14.467ZM11.3167 0.690888L5.50041 13.5486L6.86708 14.1668L12.6833 1.30911L11.3167 0.690888ZM18.4996 13.5486L12.6833 0.690888L11.3167 1.30911L17.1329 14.1668L18.4996 13.5486ZM15.6339 17.8513C16.4981 16.2194 17.4913 15.014 18.2536 14.467L17.3789 13.2484C16.353 13.9847 15.2269 15.4147 14.3083 17.1493L15.6339 17.8513ZM12.687 12.0905C12.687 12.47 12.3794 12.7776 12 12.7776V14.2776C13.2079 14.2776 14.187 13.2984 14.187 12.0905H12.687ZM12 11.4035C12.3794 11.4035 12.687 11.7111 12.687 12.0905H14.187C14.187 10.8827 13.2079 9.90349 12 9.90349V11.4035ZM11.313 12.0905C11.313 11.7111 11.6206 11.4035 12 11.4035V9.90349C10.7921 9.90349 9.81297 10.8827 9.81297 12.0905H11.313ZM12 12.7776C11.6206 12.7776 11.313 12.47 11.313 12.0905H9.81297C9.81297 13.2984 10.7921 14.2776 12 14.2776V12.7776Z" fill="black"/>
<path d="M12 10.6536V1.81128" stroke="black" stroke-width="1.5"/>
<rect x="7.34999" y="20.3071" width="9.30005" height="2.69296" fill="#ECE6DB" stroke="black" stroke-width="1.5"/>
</g>
<defs>
<clipPath id="clip0_219_495">
<rect width="24" height="24" fill="white"/>
</clipPath>
</defs>
</svg>
