<svg width="24" height="24" viewBox="0 0 24 24" fill="none" xmlns="http://www.w3.org/2000/svg">
<path d="M20.8912 17.1686H5.41571C4.08155 17.1686 3 18.2501 3 19.5843V19.5843C3 20.9184 4.08155 22 5.41571 22H20.8912" stroke="black" stroke-width="1.5"/>
<path d="M3 19.5843C3 18.2501 4.08155 17.1686 5.41571 17.1686H19.1489V22H5.41571C4.08155 22 3 20.9184 3 19.5843V19.5843Z" fill="white" stroke="black" stroke-width="1.5"/>
<path fill-rule="evenodd" clip-rule="evenodd" d="M6 2C4.34315 2 3 3.34315 3 5V19C3 19.104 3.00529 19.2068 3.01562 19.308C3.15269 18.104 4.17497 17.1686 5.41571 17.1686H20.1516V3C20.1516 2.44772 19.7039 2 19.1516 2H6Z" fill="white"/>
<path d="M3.01562 19.308L2.26949 19.3841L3.76081 19.3929L3.01562 19.308ZM20.1516 17.1686V17.9186H20.9016V17.1686H20.1516ZM3.75 5C3.75 3.75736 4.75736 2.75 6 2.75V1.25C3.92893 1.25 2.25 2.92893 2.25 5H3.75ZM3.75 19V5H2.25V19H3.75ZM3.76175 19.2319C3.754 19.1559 3.75 19.0785 3.75 19H2.25C2.25 19.1295 2.25659 19.2576 2.26949 19.3841L3.76175 19.2319ZM3.76081 19.3929C3.85523 18.5634 4.56069 17.9186 5.41571 17.9186V16.4186C3.78924 16.4186 2.45015 17.6445 2.27044 19.2232L3.76081 19.3929ZM5.41571 17.9186H20.1516V16.4186H5.41571V17.9186ZM19.4016 3V17.1686H20.9016V3H19.4016ZM19.1516 2.75C19.2897 2.75 19.4016 2.86193 19.4016 3H20.9016C20.9016 2.0335 20.1181 1.25 19.1516 1.25V2.75ZM6 2.75H19.1516V1.25H6V2.75Z" fill="black"/>
<path d="M18.9432 19.5844H5.95112" stroke="black" stroke-width="1.5" stroke-linecap="round"/>
<path d="M5.95113 16.5844L5.95113 2.60243" stroke="black" stroke-width="1.5" stroke-linecap="round"/>
<path d="M13.4922 6.50345C12.9855 6.50345 12.5455 6.63011 12.1722 6.88345C11.7988 7.13011 11.5088 7.48345 11.3022 7.94345C11.1022 8.40345 11.0022 8.95345 11.0022 9.59345C11.0022 10.2268 11.1022 10.7734 11.3022 11.2334C11.5088 11.6934 11.7988 12.0501 12.1722 12.3034C12.5455 12.5568 12.9855 12.6834 13.4922 12.6834C13.8455 12.6834 14.1655 12.6534 14.4522 12.5934C14.7388 12.5334 14.9988 12.4468 15.2322 12.3334V10.7434C15.2322 10.6501 15.2155 10.5901 15.1822 10.5634C15.1555 10.5301 15.0988 10.5068 15.0122 10.4934L13.8422 10.3434C13.7755 10.3301 13.7422 10.2901 13.7422 10.2234V9.96345C13.7422 9.90345 13.7755 9.87345 13.8422 9.87345H17.0722C17.1388 9.87345 17.1722 9.90678 17.1722 9.97345V10.2334C17.1722 10.3001 17.1388 10.3401 17.0722 10.3534L16.5922 10.4734C16.4988 10.4934 16.4388 10.5234 16.4122 10.5634C16.3855 10.5968 16.3722 10.6568 16.3722 10.7434V11.9634L16.4222 12.4834C16.4355 12.5501 16.4355 12.5968 16.4222 12.6234C16.4155 12.6434 16.3855 12.6701 16.3322 12.7034C15.9722 12.9368 15.5488 13.1134 15.0622 13.2334C14.5755 13.3468 14.0588 13.4034 13.5122 13.4034C12.7588 13.4034 12.0988 13.2468 11.5322 12.9334C10.9655 12.6134 10.5222 12.1668 10.2022 11.5934C9.88217 11.0201 9.72217 10.3534 9.72217 9.59345C9.72217 8.83345 9.88217 8.17011 10.2022 7.60345C10.5222 7.03011 10.9655 6.58345 11.5322 6.26345C12.1055 5.94345 12.7655 5.78345 13.5122 5.78345C13.9522 5.78345 14.3255 5.82011 14.6322 5.89345C14.9388 5.96011 15.2088 6.03678 15.4422 6.12345L15.8122 6.20345C15.8855 6.21011 15.9388 6.22678 15.9722 6.25345C16.0122 6.27345 16.0388 6.31678 16.0522 6.38345C16.0722 6.44345 16.0855 6.53678 16.0922 6.66345L16.2122 8.26345C16.2188 8.31678 16.1888 8.35345 16.1222 8.37345L15.8822 8.40345C15.8222 8.41011 15.7822 8.38345 15.7622 8.32345L15.3922 7.32345C15.3588 7.24345 15.3255 7.18011 15.2922 7.13345C15.2655 7.08011 15.2222 7.03011 15.1622 6.98345C14.9422 6.81678 14.6888 6.69678 14.4022 6.62345C14.1222 6.54345 13.8188 6.50345 13.4922 6.50345Z" fill="black"/>
</svg>
